<svg xmlns="http://www.w3.org/2000/svg" xmlns:xlink="http://www.w3.org/1999/xlink" width="241" zoomAndPan="magnify" viewBox="0 0 180.75 93.749996" height="125" preserveAspectRatio="xMidYMid meet" version="1.0"><defs><clipPath id="8d8598c765"><path d="M 0.117188 0 L 179.957031 0 L 179.957031 93.195312 L 0.117188 93.195312 Z M 0.117188 0 " clip-rule="nonzero"/></clipPath><clipPath id="8cc12e3aaf"><path d="M 167.246094 0 C 173.460938 0 179.671875 4.140625 179.671875 10.355469 L 179.671875 60.058594 C 179.671875 66.273438 173.460938 72.488281 167.246094 72.488281 L 43.609375 72.488281 L 20.824219 93.195312 L 20.824219 72.488281 L 12.542969 72.488281 C 6.328125 72.488281 0.117188 66.273438 0.117188 60.058594 L 0.117188 10.355469 C 0.117188 4.140625 6.328125 0 12.542969 0 Z M 167.246094 0 " clip-rule="nonzero"/></clipPath><clipPath id="72d07b4f38"><path d="M 0.117188 0 L 179.875 0 L 179.875 93.195312 L 0.117188 93.195312 Z M 0.117188 0 " clip-rule="nonzero"/></clipPath><clipPath id="5ba45f50a0"><path d="M 167.246094 0 C 173.460938 0 179.671875 4.140625 179.671875 10.355469 L 179.671875 60.058594 C 179.671875 66.273438 173.460938 72.488281 167.246094 72.488281 L 43.609375 72.488281 L 20.824219 93.195312 L 20.824219 72.488281 L 12.542969 72.488281 C 6.328125 72.488281 0.117188 66.273438 0.117188 60.058594 L 0.117188 10.355469 C 0.117188 4.140625 6.328125 0 12.542969 0 Z M 167.246094 0 " clip-rule="nonzero"/></clipPath><clipPath id="1bf04be39f"><rect x="0" width="180" y="0" height="94"/></clipPath></defs><g clip-path="url(#8d8598c765)"><g clip-path="url(#8cc12e3aaf)"><g transform="matrix(1, 0, 0, 1, 0.000000000000000014, 0.000000000000013659)"><g clip-path="url(#1bf04be39f)"><g clip-path="url(#72d07b4f38)"><g clip-path="url(#5ba45f50a0)"><path fill="#9b2f28" d="M 0.117188 0 L 179.59375 0 L 179.59375 93.195312 L 0.117188 93.195312 Z M 0.117188 0 " fill-opacity="1" fill-rule="nonzero"/></g></g></g></g></g></g></svg>