<?xml version="1.0" encoding="UTF-8"?>
<svg id="Layer_1" data-name="Layer 1" xmlns="http://www.w3.org/2000/svg" viewBox="0 0 292.11 202.2">
  <g>
    <path d="M54.66,139.82h9.79c1.61,0,2.94.22,3.99.66,1.99.84,2.98,2.39,2.98,4.66,0,1.18-.27,2.15-.8,2.9-.53.75-1.28,1.36-2.24,1.81.84.31,1.47.72,1.9,1.23s.66,1.34.71,2.48l.1,2.64c.03.75.1,1.31.21,1.68.18.63.49,1.03.94,1.21v.44h-3.58c-.1-.17-.18-.39-.23-.66-.06-.27-.11-.79-.15-1.56l-.18-3.29c-.07-1.29-.57-2.15-1.52-2.59-.54-.24-1.39-.36-2.55-.36h-6.45v8.46h-2.92v-19.72ZM64.14,148.86c1.33,0,2.38-.25,3.16-.75.77-.5,1.16-1.41,1.16-2.71,0-1.41-.54-2.36-1.62-2.87-.58-.27-1.35-.4-2.32-.4h-6.93v6.74h6.56Z"/>
    <path d="M84.47,139.82h3.3l7.81,19.72h-3.2l-2.18-5.91h-8.52l-2.33,5.91h-2.99l8.11-19.72ZM89.27,151.46l-3.27-8.71-3.47,8.71h6.74Z"/>
    <path d="M100.38,139.82h4.18l6.19,16.67,6.15-16.67h4.15v19.72h-2.79v-11.64c0-.4,0-1.07.03-2,.02-.93.03-1.93.03-2.99l-6.15,16.63h-2.89l-6.21-16.63v.6c0,.48.01,1.22.04,2.21.03.99.04,1.72.04,2.18v11.64h-2.79v-19.72Z"/>
    <path d="M129.59,153.18c.07,1.12.34,2.03.83,2.73.93,1.31,2.57,1.96,4.93,1.96,1.05,0,2.01-.14,2.88-.43,1.68-.56,2.51-1.55,2.51-2.98,0-1.07-.36-1.84-1.07-2.3-.72-.45-1.85-.84-3.38-1.17l-2.83-.6c-1.85-.39-3.15-.83-3.92-1.3-1.33-.82-1.99-2.05-1.99-3.69,0-1.77.65-3.23,1.95-4.36,1.3-1.14,3.15-1.71,5.53-1.71,2.2,0,4.06.5,5.6,1.5,1.54,1,2.3,2.59,2.3,4.79h-2.74c-.14-1.06-.44-1.87-.9-2.43-.85-1.03-2.3-1.54-4.34-1.54-1.65,0-2.83.33-3.56.99-.72.66-1.08,1.43-1.08,2.31,0,.97.43,1.67,1.28,2.12.56.29,1.82.64,3.79,1.07l2.93.63c1.41.3,2.5.72,3.27,1.25,1.33.92,1.99,2.26,1.99,4.01,0,2.18-.85,3.75-2.54,4.69-1.69.94-3.66,1.41-5.9,1.41-2.61,0-4.66-.63-6.13-1.88-1.48-1.24-2.2-2.93-2.17-5.06h2.74Z"/>
    <path d="M156.19,139.82h3.3l7.81,19.72h-3.2l-2.18-5.91h-8.52l-2.33,5.91h-2.99l8.11-19.72ZM160.98,151.46l-3.27-8.71-3.47,8.71h6.74Z"/>
    <path d="M181.09,139.82h2.92v17.37h10.8v2.35h-13.72v-19.72Z"/>
    <path d="M206.27,139.82h3.3l7.81,19.72h-3.2l-2.18-5.91h-8.52l-2.33,5.91h-2.99l8.11-19.72ZM211.06,151.46l-3.27-8.71-3.47,8.71h6.74Z"/>
    <path d="M222.18,139.82h9.31c2.54,0,4.34.69,5.41,2.07.63.82.94,1.75.94,2.82,0,1.24-.39,2.26-1.16,3.06-.4.42-.98.81-1.73,1.15,1.1.38,1.93.82,2.48,1.3.97.86,1.45,2.05,1.45,3.56,0,1.27-.44,2.42-1.31,3.45-1.31,1.54-3.39,2.31-6.24,2.31h-9.16v-19.72ZM230.4,148.16c1.24,0,2.21-.16,2.9-.47,1.09-.49,1.63-1.38,1.63-2.66s-.58-2.16-1.73-2.6c-.65-.25-1.62-.38-2.9-.38h-5.26v6.11h5.36ZM231.38,157.26c1.81,0,3.09-.47,3.86-1.42.48-.6.72-1.32.72-2.17,0-1.43-.71-2.41-2.12-2.93-.75-.28-1.74-.42-2.97-.42h-5.84v6.94h6.35Z"/>
  </g>
  <g>
    <path d="M58.64,174.72v-.62c0-.1.05-.14.15-.14h.95c.1,0,.15.05.15.14v4.87c0,.29.06.49.17.6.11.11.3.17.54.17h.66c.4,0,.6.19.6.57,0,.24-.05.39-.14.45s-.25.09-.45.09h-.88c-.49,0-.87-.09-1.14-.27-.27-.18-.46-.47-.54-.88-.2.17-.44.3-.72.39s-.58.13-.91.13c-.39,0-.75-.05-1.08-.16-.33-.11-.62-.27-.87-.48-.24-.22-.44-.49-.57-.82s-.21-.72-.21-1.17c0-.54.08-.99.24-1.35.16-.36.37-.66.63-.88.26-.22.56-.39.9-.49s.7-.15,1.07-.15h1.46ZM57.09,179.1c.57,0,.97-.16,1.2-.48.23-.32.35-.77.35-1.34v-1.44h-1.46c-.47,0-.85.13-1.14.38-.29.25-.44.71-.44,1.37,0,.5.13.87.39,1.13.26.25.63.38,1.1.38ZM55.8,172.98c-.1,0-.15-.05-.15-.14v-1.05c0-.1.05-.14.15-.14h1.01c.1,0,.15.05.15.14v1.05c0,.1-.05.14-.15.14h-1.01ZM57.62,172.98c-.1,0-.15-.05-.15-.14v-1.05c0-.1.05-.14.15-.14h1.01c.1,0,.15.05.15.14v1.05c0,.1-.05.14-.15.14h-1.01Z"/>
    <path d="M61.29,180.85c-.2,0-.33-.04-.4-.12-.07-.08-.1-.22-.1-.42,0-.24.03-.39.1-.47s.2-.11.41-.11h1.64c.2,0,.35.04.45.11.1.08.15.22.15.42,0,.24-.05.4-.14.47-.09.08-.25.11-.45.11h-1.64Z"/>
    <path d="M62.94,180.85c-.2,0-.33-.04-.4-.12-.07-.08-.1-.22-.1-.42,0-.24.03-.39.1-.47s.2-.11.41-.11h1.64c.2,0,.35.04.45.11.1.08.15.22.15.42,0,.24-.05.4-.14.47-.09.08-.25.11-.45.11h-1.64Z"/>
    <path d="M64.6,180.85c-.2,0-.33-.04-.4-.12-.07-.08-.1-.22-.1-.42,0-.24.03-.39.1-.47s.2-.11.41-.11h1.64c.2,0,.35.04.45.11.1.08.15.22.15.42,0,.24-.05.4-.14.47-.09.08-.25.11-.45.11h-1.64Z"/>
    <path d="M66.25,180.85c-.2,0-.33-.04-.4-.12-.07-.08-.1-.22-.1-.42,0-.24.03-.39.1-.47s.2-.11.41-.11h1.64c.2,0,.35.04.45.11.1.08.15.22.15.42,0,.24-.05.4-.14.47-.09.08-.25.11-.45.11h-1.64Z"/>
    <path d="M67.91,180.85c-.2,0-.33-.04-.4-.12-.07-.08-.1-.22-.1-.42,0-.24.03-.39.1-.47s.2-.11.41-.11h1.64c.2,0,.35.04.45.11.1.08.15.22.15.42,0,.24-.05.4-.14.47-.09.08-.25.11-.45.11h-1.64Z"/>
    <path d="M69.66,180.85c-.2,0-.35-.03-.45-.1-.1-.07-.15-.2-.15-.4,0-.24.05-.4.14-.49s.25-.13.45-.13h1.01c.25,0,.43-.06.54-.17.11-.11.17-.31.17-.6v-3.85c0-.1.05-.14.15-.14h.95c.1,0,.15.05.15.14v3.63c0,.33.12.57.37.73.24.16.57.24.98.24h.18c.2,0,.35.04.45.12.1.08.15.22.15.41,0,.25-.05.41-.14.48s-.25.11-.45.11h-.33c-.32,0-.6-.06-.84-.19-.24-.12-.42-.31-.55-.56-.25.5-.77.75-1.55.75h-1.24ZM70.42,183.52c-.1,0-.15-.05-.15-.14v-1.05c0-.1.05-.14.15-.14h1.01c.1,0,.15.05.15.14v1.05c0,.1-.05.14-.15.14h-1.01ZM72.24,183.52c-.1,0-.15-.05-.15-.14v-1.05c0-.1.05-.14.15-.14h1.01c.1,0,.15.05.15.14v1.05c0,.1-.05.14-.15.14h-1.01Z"/>
    <path d="M74.18,180.85c-.2,0-.33-.04-.4-.12-.07-.08-.1-.22-.1-.42,0-.24.03-.39.1-.47s.2-.11.41-.11h1.64c.2,0,.35.04.45.11.1.08.15.22.15.42,0,.24-.05.4-.14.47-.09.08-.25.11-.45.11h-1.64Z"/>
    <path d="M75.83,180.85c-.2,0-.33-.04-.4-.12-.07-.08-.1-.22-.1-.42,0-.24.03-.39.1-.47s.2-.11.41-.11h1.64c.2,0,.35.04.45.11.1.08.15.22.15.42,0,.24-.05.4-.14.47-.09.08-.25.11-.45.11h-1.64Z"/>
    <path d="M77.49,180.85c-.2,0-.33-.04-.4-.12-.07-.08-.1-.22-.1-.42,0-.24.03-.39.1-.47s.2-.11.41-.11h1.64c.2,0,.35.04.45.11.1.08.15.22.15.42,0,.24-.05.4-.14.47-.09.08-.25.11-.45.11h-1.64Z"/>
    <path d="M79.13,180.85c-.2,0-.35-.03-.45-.1-.1-.07-.15-.2-.15-.4,0-.24.05-.4.14-.49s.25-.13.45-.13h1.03c.25,0,.43-.06.54-.17.11-.11.17-.31.17-.6v-3.85c0-.1.05-.14.15-.14h.95c.1,0,.15.05.15.14v3.92c0,.62-.13,1.08-.4,1.37-.27.29-.72.44-1.34.44h-1.25ZM80.08,173.55c-.1,0-.15-.05-.15-.14v-1.05c0-.1.05-.14.15-.14h1.01c.1,0,.15.05.15.14v1.05c0,.1-.05.14-.15.14h-1.01ZM81.9,173.55c-.1,0-.15-.05-.15-.14v-1.05c0-.1.05-.14.15-.14h1.01c.1,0,.15.05.15.14v1.05c0,.1-.05.14-.15.14h-1.01Z"/>
    <path d="M85.54,180.71c0,.1-.05.14-.15.14h-.95c-.1,0-.15-.05-.15-.14v-9.48c0-.1.05-.14.15-.14h.95c.1,0,.15.05.15.14v9.48Z"/>
    <path d="M86.74,183.71c-.1,0-.15-.05-.15-.14v-.83c0-.1.05-.14.15-.14h.34c.81,0,1.21-.41,1.21-1.22v-6.25c0-.1.05-.14.15-.14h.95c.1,0,.15.05.15.14v6.22c0,.78-.2,1.36-.61,1.77-.41.4-1,.6-1.79.6h-.4Z"/>
    <path d="M91.56,171.23c0-.1.05-.14.15-.14h.95c.1,0,.15.05.15.14v7.74c0,.29.06.49.17.6.11.11.3.17.54.17h.66c.4,0,.6.19.6.57,0,.24-.05.39-.14.45s-.25.09-.45.09h-.88c-.63,0-1.07-.15-1.34-.44-.27-.29-.4-.75-.4-1.37v-7.81Z"/>
    <path d="M94.2,180.85c-.2,0-.33-.04-.4-.12-.07-.08-.1-.22-.1-.42,0-.24.03-.39.1-.47s.2-.11.41-.11h1.64c.2,0,.35.04.45.11.1.08.15.22.15.42,0,.24-.05.4-.14.47-.09.08-.25.11-.45.11h-1.64Z"/>
    <path d="M95.85,180.85c-.2,0-.33-.04-.4-.12-.07-.08-.1-.22-.1-.42,0-.24.03-.39.1-.47s.2-.11.41-.11h1.64c.2,0,.35.04.45.11.1.08.15.22.15.42,0,.24-.05.4-.14.47-.09.08-.25.11-.45.11h-1.64Z"/>
    <path d="M97.51,180.85c-.2,0-.33-.04-.4-.12-.07-.08-.1-.22-.1-.42,0-.24.03-.39.1-.47s.2-.11.41-.11h1.64c.2,0,.35.04.45.11.1.08.15.22.15.42,0,.24-.05.4-.14.47-.09.08-.25.11-.45.11h-1.64Z"/>
    <path d="M103.66,180.95c-.47,0-.88-.06-1.24-.19-.36-.13-.66-.33-.91-.61-.21.31-.48.5-.81.58-.33.08-.63.12-.91.12h-.64c-.4,0-.6-.19-.6-.57,0-.24.05-.39.14-.45s.25-.09.45-.09h.75c.11,0,.22-.02.33-.06.11-.04.21-.12.3-.22.09-.1.16-.23.22-.4.06-.17.08-.38.08-.62,0-.1-.01-.19-.01-.28v-.29c0-1.1.25-1.9.76-2.39.51-.49,1.2-.74,2.09-.74s1.58.25,2.09.74c.51.49.76,1.29.76,2.39,0,.55-.07,1.02-.2,1.41s-.32.71-.57.96c-.24.25-.54.43-.9.55s-.75.18-1.19.18ZM103.66,175.84c-.56,0-.96.18-1.22.53-.25.35-.38.85-.38,1.48,0,.69.13,1.19.38,1.51.25.32.66.47,1.22.47s.96-.16,1.22-.47c.25-.32.38-.82.38-1.51,0-.63-.13-1.13-.38-1.48-.25-.35-.66-.53-1.22-.53Z"/>
    <path d="M112.27,179.73h1.75c.25,0,.43-.06.54-.17.11-.11.17-.31.17-.6v-7.74c0-.1.05-.14.15-.14h.95c.1,0,.15.05.15.14v7.81c0,.62-.13,1.08-.4,1.37-.27.29-.72.44-1.34.44h-6.16c-.1,0-.15-.05-.15-.14v-.83c0-.1.05-.14.15-.14h2.94v-6.48c0-.1.05-.14.15-.14h.95c.1,0,.15.05.15.14v6.48ZM110.67,184.17c-.08-.12-.14-.25-.19-.4s-.07-.31-.07-.5c0-.15.02-.31.07-.48.05-.17.13-.32.25-.46.12-.14.28-.25.47-.34.19-.09.43-.14.72-.14.26,0,.49.04.69.13.2.09.37.21.49.37.03.07.03.11,0,.14l-.31.24c-.07.06-.12.07-.16.03-.09-.1-.19-.17-.31-.24-.12-.06-.25-.09-.4-.09-.28,0-.49.08-.62.24s-.2.35-.2.57.06.4.17.55c.11.16.23.27.34.35h1.54c.06,0,.09.03.09.1v.4c0,.07-.03.1-.09.1h-3.03c-.06,0-.09-.03-.09-.1v-.4c0-.07.03-.1.09-.1h.57Z"/>
    <path d="M119.32,180.71c0,.1-.05.14-.15.14h-.95c-.1,0-.15-.05-.15-.14v-9.48c0-.1.05-.14.15-.14h.95c.1,0,.15.05.15.14v9.48Z"/>
    <path d="M128.8,174.72v-.62c0-.1.05-.14.15-.14h.95c.1,0,.15.05.15.14v4.87c0,.29.06.49.17.6.11.11.3.17.54.17h.66c.4,0,.6.19.6.57,0,.24-.05.39-.14.45s-.25.09-.45.09h-.88c-.49,0-.87-.09-1.14-.27-.27-.18-.46-.47-.54-.88-.2.17-.44.3-.72.39s-.58.13-.91.13c-.39,0-.75-.05-1.08-.16-.33-.11-.62-.27-.87-.48-.24-.22-.44-.49-.57-.82s-.21-.72-.21-1.17c0-.54.08-.99.24-1.35.16-.36.37-.66.63-.88.26-.22.56-.39.9-.49s.7-.15,1.07-.15h1.46ZM127.25,179.1c.57,0,.97-.16,1.2-.48.23-.32.35-.77.35-1.34v-1.44h-1.46c-.47,0-.85.13-1.14.38-.29.25-.44.71-.44,1.37,0,.5.13.87.39,1.13.26.25.63.38,1.1.38ZM125.95,172.98c-.1,0-.15-.05-.15-.14v-1.05c0-.1.05-.14.15-.14h1.01c.1,0,.15.05.15.14v1.05c0,.1-.05.14-.15.14h-1.01ZM127.77,172.98c-.1,0-.15-.05-.15-.14v-1.05c0-.1.05-.14.15-.14h1.01c.1,0,.15.05.15.14v1.05c0,.1-.05.14-.15.14h-1.01Z"/>
    <path d="M131.44,180.85c-.2,0-.33-.04-.4-.12-.07-.08-.1-.22-.1-.42,0-.24.03-.39.1-.47s.2-.11.41-.11h1.64c.2,0,.35.04.45.11.1.08.15.22.15.42,0,.24-.05.4-.14.47-.09.08-.25.11-.45.11h-1.64Z"/>
    <path d="M133.09,180.85c-.2,0-.33-.04-.4-.12-.07-.08-.1-.22-.1-.42,0-.24.03-.39.1-.47s.2-.11.41-.11h1.64c.2,0,.35.04.45.11.1.08.15.22.15.42,0,.24-.05.4-.14.47-.09.08-.25.11-.45.11h-1.64Z"/>
    <path d="M134.75,180.85c-.2,0-.33-.04-.4-.12-.07-.08-.1-.22-.1-.42,0-.24.03-.39.1-.47s.2-.11.41-.11h1.64c.2,0,.35.04.45.11.1.08.15.22.15.42,0,.24-.05.4-.14.47-.09.08-.25.11-.45.11h-1.64Z"/>
    <path d="M136.41,180.85c-.2,0-.33-.04-.4-.12-.07-.08-.1-.22-.1-.42,0-.24.03-.39.1-.47s.2-.11.41-.11h1.64c.2,0,.35.04.45.11.1.08.15.22.15.42,0,.24-.05.4-.14.47-.09.08-.25.11-.45.11h-1.64Z"/>
    <path d="M138.06,180.85c-.2,0-.33-.04-.4-.12-.07-.08-.1-.22-.1-.42,0-.24.03-.39.1-.47s.2-.11.41-.11h1.64c.2,0,.35.04.45.11.1.08.15.22.15.42,0,.24-.05.4-.14.47-.09.08-.25.11-.45.11h-1.64Z"/>
    <path d="M143.19,175.84c-.34,0-.65.07-.93.2-.28.13-.53.32-.75.55-.06.07-.13.07-.21.01l-.66-.52c-.09-.07-.1-.13-.04-.2.28-.33.62-.61,1.04-.83.41-.22.92-.33,1.51-.33.69,0,1.25.1,1.69.31.44.21.78.48,1.04.81.25.33.43.72.53,1.16.1.44.15.9.15,1.36,0,.09,0,.17,0,.24,0,.08,0,.15,0,.23.02.3.15.52.4.67s.56.22.95.22h.16c.2,0,.35.04.45.12.1.08.15.22.15.41,0,.25-.05.41-.14.48s-.25.11-.45.11h-.31c-.34,0-.64-.07-.91-.21-.27-.14-.46-.35-.57-.63-.17.31-.4.52-.71.65-.3.12-.68.19-1.14.19h-4.7c-.4,0-.6-.19-.6-.57,0-.24.05-.39.14-.45s.25-.09.45-.09h4.24c.28,0,.5-.02.67-.06.17-.04.3-.12.39-.22.09-.1.15-.25.18-.42.03-.18.04-.4.04-.65,0-.37-.03-.72-.1-1.03s-.18-.58-.34-.8c-.15-.22-.36-.4-.62-.52s-.58-.18-.97-.18ZM142.91,183.49c-.1,0-.15-.05-.15-.14v-1.05c0-.1.05-.14.15-.14h1.01c.1,0,.15.05.15.14v1.05c0,.1-.05.14-.15.14h-1.01Z"/>
    <path d="M148.06,180.85c-.2,0-.33-.04-.4-.12-.07-.08-.1-.22-.1-.42,0-.24.03-.39.1-.47s.2-.11.41-.11h1.64c.2,0,.35.04.45.11.1.08.15.22.15.42,0,.24-.05.4-.14.47-.09.08-.25.11-.45.11h-1.64Z"/>
    <path d="M149.71,180.85c-.2,0-.33-.04-.4-.12-.07-.08-.1-.22-.1-.42,0-.24.03-.39.1-.47s.2-.11.41-.11h1.64c.2,0,.35.04.45.11.1.08.15.22.15.42,0,.24-.05.4-.14.47-.09.08-.25.11-.45.11h-1.64Z"/>
    <path d="M151.37,180.85c-.2,0-.33-.04-.4-.12-.07-.08-.1-.22-.1-.42,0-.24.03-.39.1-.47s.2-.11.41-.11h1.64c.2,0,.35.04.45.11.1.08.15.22.15.42,0,.24-.05.4-.14.47-.09.08-.25.11-.45.11h-1.64Z"/>
    <path d="M152.42,180.27c0-.24.05-.39.14-.45s.25-.09.45-.09h1.66v-1.88c0-.55.07-1.02.22-1.41.14-.4.34-.72.59-.98.25-.25.54-.44.89-.56.34-.12.71-.18,1.1-.18.92,0,1.62.24,2.12.72.5.48.75,1.23.75,2.24,0,.4-.06.79-.18,1.16-.12.37-.26.67-.42.89h1.66c.21,0,.36.03.45.09s.14.21.14.45c0,.38-.2.57-.6.57h-1.51c.21.25.31.58.31.99,0,.29-.06.55-.16.8-.11.24-.28.45-.5.63-.22.18-.5.32-.83.42-.33.11-.72.16-1.16.16-.93,0-1.63-.18-2.13-.54-.49-.36-.74-.91-.74-1.66v-.8h-1.66c-.4,0-.6-.19-.6-.57ZM157.46,175.84c-.48,0-.85.16-1.13.49-.27.33-.41.78-.41,1.36v2.04h1.69c.27,0,.49-.06.68-.17.18-.11.34-.27.46-.45s.2-.4.25-.63c.05-.23.07-.47.07-.7,0-.62-.13-1.1-.4-1.44-.27-.33-.67-.5-1.21-.5ZM157.47,182.73c.54,0,.92-.08,1.13-.24.22-.16.33-.39.33-.69,0-.1-.01-.21-.04-.32s-.09-.21-.17-.31c-.08-.1-.2-.17-.34-.23-.14-.06-.33-.09-.56-.09h-1.9v.8c0,.72.52,1.08,1.55,1.08Z"/>
    <path d="M161.38,180.85c-.2,0-.33-.04-.4-.12-.07-.08-.1-.22-.1-.42,0-.24.03-.39.1-.47s.2-.11.41-.11h1.64c.2,0,.35.04.45.11.1.08.15.22.15.42,0,.24-.05.4-.14.47-.09.08-.25.11-.45.11h-1.64Z"/>
    <path d="M163.04,180.85c-.2,0-.33-.04-.4-.12-.07-.08-.1-.22-.1-.42,0-.24.03-.39.1-.47s.2-.11.41-.11h1.64c.2,0,.35.04.45.11.1.08.15.22.15.42,0,.24-.05.4-.14.47-.09.08-.25.11-.45.11h-1.64Z"/>
    <path d="M164.69,180.85c-.2,0-.33-.04-.4-.12-.07-.08-.1-.22-.1-.42,0-.24.03-.39.1-.47s.2-.11.41-.11h1.64c.2,0,.35.04.45.11.1.08.15.22.15.42,0,.24-.05.4-.14.47-.09.08-.25.11-.45.11h-1.64Z"/>
    <path d="M166.33,180.85c-.2,0-.35-.03-.45-.1-.1-.07-.15-.2-.15-.4,0-.24.05-.4.14-.49s.25-.13.45-.13h.94c.25,0,.43-.06.54-.17.11-.11.17-.31.17-.6v-7.74c0-.1.05-.14.15-.14h.95c.1,0,.15.05.15.14v7.53c0,.33.12.57.37.73.24.16.57.24.98.24h.18c.2,0,.35.04.45.12.1.08.15.22.15.41,0,.25-.05.41-.14.48-.09.07-.25.11-.46.11h-.33c-.32,0-.6-.06-.84-.19-.24-.12-.42-.31-.55-.56-.25.5-.77.75-1.55.75h-1.16Z"/>
    <path d="M170.77,180.85c-.2,0-.33-.04-.4-.12-.07-.08-.1-.22-.1-.42,0-.24.03-.39.1-.47s.2-.11.41-.11h1.64c.2,0,.35.04.45.11.1.08.15.22.15.42,0,.24-.05.4-.14.47-.09.08-.25.11-.45.11h-1.64Z"/>
    <path d="M172.42,180.85c-.2,0-.33-.04-.4-.12-.07-.08-.1-.22-.1-.42,0-.24.03-.39.1-.47s.2-.11.41-.11h1.64c.2,0,.35.04.45.11.1.08.15.22.15.42,0,.24-.05.4-.14.47-.09.08-.25.11-.45.11h-1.64Z"/>
    <path d="M174.08,180.85c-.2,0-.33-.04-.4-.12-.07-.08-.1-.22-.1-.42,0-.24.03-.39.1-.47s.2-.11.41-.11h1.64c.2,0,.35.04.45.11.1.08.15.22.15.42,0,.24-.05.4-.14.47-.09.08-.25.11-.45.11h-1.64Z"/>
    <path d="M175.72,180.85c-.2,0-.35-.03-.45-.1-.1-.07-.15-.2-.15-.4,0-.24.05-.4.14-.49s.25-.13.45-.13h.94c.25,0,.43-.06.54-.17.11-.11.17-.31.17-.6v-7.74c0-.1.05-.14.15-.14h.95c.1,0,.15.05.15.14v7.81c0,.62-.13,1.08-.4,1.37-.27.29-.72.44-1.34.44h-1.16Z"/>
    <path d="M181.97,180.71c0,.1-.05.14-.15.14h-.95c-.1,0-.15-.05-.15-.14v-9.48c0-.1.05-.14.15-.14h.95c.1,0,.15.05.15.14v9.48Z"/>
    <path d="M186.74,183.71c-.1,0-.15-.05-.15-.14v-.83c0-.1.05-.14.15-.14h.34c.81,0,1.21-.41,1.21-1.22v-6.25c0-.1.05-.14.15-.14h.95c.1,0,.15.05.15.14v3.63c0,.33.12.57.37.73.24.16.57.24.98.24h.16c.2,0,.35.04.45.12.1.08.15.22.15.41,0,.25-.05.41-.14.48-.09.07-.25.11-.46.11h-.31c-.52,0-.92-.15-1.19-.46v.95c0,.78-.2,1.36-.61,1.77-.41.4-1,.6-1.79.6h-.4ZM188.42,173.55c-.1,0-.15-.05-.15-.14v-1.05c0-.1.05-.14.15-.14h1.01c.1,0,.15.05.15.14v1.05c0,.1-.05.14-.15.14h-1.01Z"/>
    <path d="M191.07,180.85c-.2,0-.33-.04-.4-.12-.07-.08-.1-.22-.1-.42,0-.24.03-.39.1-.47s.2-.11.41-.11h1.64c.2,0,.35.04.45.11.1.08.15.22.15.42,0,.24-.05.4-.14.47-.09.08-.25.11-.45.11h-1.64Z"/>
    <path d="M192.73,180.85c-.2,0-.33-.04-.4-.12-.07-.08-.1-.22-.1-.42,0-.24.03-.39.1-.47s.2-.11.41-.11h1.64c.2,0,.35.04.45.11.1.08.15.22.15.42,0,.24-.05.4-.14.47-.09.08-.25.11-.45.11h-1.64Z"/>
    <path d="M194.38,180.85c-.2,0-.33-.04-.4-.12-.07-.08-.1-.22-.1-.42,0-.24.03-.39.1-.47s.2-.11.41-.11h1.64c.2,0,.35.04.45.11.1.08.15.22.15.42,0,.24-.05.4-.14.47-.09.08-.25.11-.45.11h-1.64Z"/>
    <path d="M196.04,180.85c-.2,0-.33-.04-.4-.12-.07-.08-.1-.22-.1-.42,0-.24.03-.39.1-.47s.2-.11.41-.11h1.64c.2,0,.35.04.45.11.1.08.15.22.15.42,0,.24-.05.4-.14.47-.09.08-.25.11-.45.11h-1.64Z"/>
    <path d="M197.7,180.85c-.2,0-.33-.04-.4-.12-.07-.08-.1-.22-.1-.42,0-.24.03-.39.1-.47s.2-.11.41-.11h1.64c.2,0,.35.04.45.11.1.08.15.22.15.42,0,.24-.05.4-.14.47-.09.08-.25.11-.45.11h-1.64Z"/>
    <path d="M199.44,180.85c-.2,0-.35-.03-.45-.1-.1-.07-.15-.2-.15-.4,0-.24.05-.4.14-.49s.25-.13.45-.13h1.01c.25,0,.43-.06.54-.17.11-.11.17-.31.17-.6v-3.85c0-.1.05-.14.15-.14h.95c.1,0,.15.05.15.14v3.63c0,.33.12.57.37.73.24.16.57.24.98.24h.18c.2,0,.35.04.45.12.1.08.15.22.15.41,0,.25-.05.41-.14.48s-.25.11-.45.11h-.33c-.32,0-.6-.06-.84-.19-.24-.12-.42-.31-.55-.56-.25.5-.77.75-1.55.75h-1.24ZM200.2,183.52c-.1,0-.15-.05-.15-.14v-1.05c0-.1.05-.14.15-.14h1.01c.1,0,.15.05.15.14v1.05c0,.1-.05.14-.15.14h-1.01ZM202.02,183.52c-.1,0-.15-.05-.15-.14v-1.05c0-.1.05-.14.15-.14h1.01c.1,0,.15.05.15.14v1.05c0,.1-.05.14-.15.14h-1.01Z"/>
    <path d="M203.96,180.85c-.2,0-.33-.04-.4-.12-.07-.08-.1-.22-.1-.42,0-.24.03-.39.1-.47s.2-.11.41-.11h1.64c.2,0,.35.04.45.11.1.08.15.22.15.42,0,.24-.05.4-.14.47-.09.08-.25.11-.45.11h-1.64Z"/>
    <path d="M205.62,180.85c-.2,0-.33-.04-.4-.12-.07-.08-.1-.22-.1-.42,0-.24.03-.39.1-.47s.2-.11.41-.11h1.64c.2,0,.35.04.45.11.1.08.15.22.15.42,0,.24-.05.4-.14.47-.09.08-.25.11-.45.11h-1.64Z"/>
    <path d="M207.27,180.85c-.2,0-.33-.04-.4-.12-.07-.08-.1-.22-.1-.42,0-.24.03-.39.1-.47s.2-.11.41-.11h1.64c.2,0,.35.04.45.11.1.08.15.22.15.42,0,.24-.05.4-.14.47-.09.08-.25.11-.45.11h-1.64Z"/>
    <path d="M213.42,180.95c-.47,0-.88-.06-1.24-.19-.36-.13-.66-.33-.91-.61-.21.31-.48.5-.81.58-.33.08-.63.12-.91.12h-.64c-.4,0-.6-.19-.6-.57,0-.24.05-.39.14-.45s.25-.09.45-.09h.75c.11,0,.22-.02.33-.06.11-.04.21-.12.3-.22.09-.1.16-.23.22-.4.06-.17.08-.38.08-.62,0-.1-.01-.19-.01-.28v-.29c0-1.1.25-1.9.76-2.39.51-.49,1.2-.74,2.09-.74s1.58.25,2.09.74c.51.49.76,1.29.76,2.39,0,.55-.07,1.02-.2,1.41s-.32.71-.57.96c-.24.25-.54.43-.9.55s-.75.18-1.19.18ZM213.42,175.84c-.56,0-.96.18-1.22.53-.25.35-.38.85-.38,1.48,0,.69.13,1.19.38,1.51.25.32.66.47,1.22.47s.96-.16,1.22-.47c.25-.32.38-.82.38-1.51,0-.63-.13-1.13-.38-1.48-.25-.35-.66-.53-1.22-.53Z"/>
    <path d="M217.24,183.71c-.1,0-.15-.05-.15-.14v-.83c0-.1.05-.14.15-.14h.34c.81,0,1.21-.41,1.21-1.22v-6.25c0-.1.05-.14.15-.14h.95c.1,0,.15.05.15.14v3.63c0,.33.12.57.37.73.24.16.57.24.98.24h.16c.2,0,.35.04.45.12.1.08.15.22.15.41,0,.25-.05.41-.14.48-.09.07-.25.11-.46.11h-.31c-.52,0-.92-.15-1.19-.46v.95c0,.78-.2,1.36-.61,1.77-.41.4-1,.6-1.79.6h-.4Z"/>
    <path d="M221.57,180.85c-.2,0-.33-.04-.4-.12-.07-.08-.1-.22-.1-.42,0-.24.03-.39.1-.47s.2-.11.41-.11h1.64c.2,0,.35.04.45.11.1.08.15.22.15.42,0,.24-.05.4-.14.47-.09.08-.25.11-.45.11h-1.64Z"/>
    <path d="M223.22,180.85c-.2,0-.33-.04-.4-.12-.07-.08-.1-.22-.1-.42,0-.24.03-.39.1-.47s.2-.11.41-.11h1.64c.2,0,.35.04.45.11.1.08.15.22.15.42,0,.24-.05.4-.14.47-.09.08-.25.11-.45.11h-1.64Z"/>
    <path d="M224.88,180.85c-.2,0-.33-.04-.4-.12-.07-.08-.1-.22-.1-.42,0-.24.03-.39.1-.47s.2-.11.41-.11h1.64c.2,0,.35.04.45.11.1.08.15.22.15.42,0,.24-.05.4-.14.47-.09.08-.25.11-.45.11h-1.64Z"/>
    <path d="M226.63,180.85c-.2,0-.35-.03-.45-.1-.1-.07-.15-.2-.15-.4,0-.24.05-.4.14-.49s.25-.13.45-.13h1.01c.25,0,.43-.06.54-.17.11-.11.17-.31.17-.6v-3.85c0-.1.05-.14.15-.14h.95c.1,0,.15.05.15.14v3.63c0,.33.12.57.37.73.24.16.57.24.98.24h.18c.2,0,.35.04.45.12.1.08.15.22.15.41,0,.25-.05.41-.14.48s-.25.11-.45.11h-.33c-.32,0-.6-.06-.84-.19-.24-.12-.42-.31-.55-.56-.25.5-.77.75-1.55.75h-1.24ZM227.54,173.55c-.1,0-.15-.05-.15-.14v-1.05c0-.1.05-.14.15-.14h1.01c.1,0,.15.05.15.14v1.05c0,.1-.05.14-.15.14h-1.01ZM229.36,173.55c-.1,0-.15-.05-.15-.14v-1.05c0-.1.05-.14.15-.14h1.01c.1,0,.15.05.15.14v1.05c0,.1-.05.14-.15.14h-1.01Z"/>
    <path d="M231.15,180.85c-.2,0-.33-.04-.4-.12-.07-.08-.1-.22-.1-.42,0-.24.03-.39.1-.47s.2-.11.41-.11h1.64c.2,0,.35.04.45.11.1.08.15.22.15.42,0,.24-.05.4-.14.47-.09.08-.25.11-.45.11h-1.64Z"/>
    <path d="M232.8,180.85c-.2,0-.33-.04-.4-.12-.07-.08-.1-.22-.1-.42,0-.24.03-.39.1-.47s.2-.11.41-.11h1.64c.2,0,.35.04.45.11.1.08.15.22.15.42,0,.24-.05.4-.14.47-.09.08-.25.11-.45.11h-1.64Z"/>
    <path d="M234.46,180.85c-.2,0-.33-.04-.4-.12-.07-.08-.1-.22-.1-.42,0-.24.03-.39.1-.47s.2-.11.41-.11h1.64c.2,0,.35.04.45.11.1.08.15.22.15.42,0,.24-.05.4-.14.47-.09.08-.25.11-.45.11h-1.64Z"/>
    <path d="M236.1,180.85c-.2,0-.35-.03-.45-.1-.1-.07-.15-.2-.15-.4,0-.24.05-.4.14-.49s.25-.13.45-.13h.94c.25,0,.43-.06.54-.17.11-.11.17-.31.17-.6v-7.74c0-.1.05-.14.15-.14h.95c.1,0,.15.05.15.14v7.81c0,.62-.13,1.08-.4,1.37-.27.29-.72.44-1.34.44h-1.16Z"/>
  </g>
  <g>
    <path d="M61.44,113.46v-1.24c0-.19.1-.29.29-.29h1.85c.19,0,.29.1.29.29v9.81c0,.58.11.98.33,1.2.22.22.57.33,1.06.33h1.27c.77,0,1.16.39,1.16,1.16,0,.48-.09.79-.28.91s-.48.19-.88.19h-1.71c-.95,0-1.68-.18-2.21-.54-.53-.36-.88-.95-1.06-1.78-.39.35-.85.61-1.39.78s-1.13.26-1.77.26c-.75,0-1.45-.11-2.1-.32-.65-.21-1.21-.54-1.68-.97-.47-.43-.84-.98-1.11-1.65-.27-.67-.41-1.45-.41-2.36,0-1.08.15-1.99.46-2.72.31-.73.71-1.33,1.22-1.78s1.09-.78,1.75-.98c.67-.2,1.36-.3,2.07-.3h2.84ZM58.42,122.28c1.1,0,1.88-.32,2.33-.97s.68-1.55.68-2.71v-2.89h-2.84c-.91,0-1.65.26-2.21.77-.57.51-.85,1.43-.85,2.76,0,1,.25,1.76.75,2.27.5.51,1.22.77,2.14.77ZM55.91,109.95c-.19,0-.29-.1-.29-.29v-2.11c0-.19.1-.29.29-.29h1.97c.19,0,.29.1.29.29v2.11c0,.19-.1.29-.29.29h-1.97ZM59.44,109.95c-.19,0-.29-.1-.29-.29v-2.11c0-.19.1-.29.29-.29h1.97c.19,0,.29.1.29.29v2.11c0,.19-.1.29-.29.29h-1.97Z"/>
    <path d="M66.56,125.82c-.39,0-.65-.08-.78-.25-.13-.16-.2-.45-.2-.85,0-.48.06-.8.19-.94.13-.14.39-.22.8-.22h3.18c.39,0,.68.08.87.23.19.15.29.43.29.84,0,.48-.09.8-.27.96-.18.15-.48.23-.88.23h-3.18Z"/>
    <path d="M69.77,125.82c-.39,0-.65-.08-.78-.25-.13-.16-.2-.45-.2-.85,0-.48.06-.8.19-.94.13-.14.39-.22.8-.22h3.18c.39,0,.68.08.87.23.19.15.29.43.29.84,0,.48-.09.8-.27.96-.18.15-.48.23-.88.23h-3.18Z"/>
    <path d="M72.98,125.82c-.39,0-.65-.08-.78-.25-.13-.16-.2-.45-.2-.85,0-.48.06-.8.19-.94.13-.14.39-.22.8-.22h3.18c.39,0,.68.08.87.23.19.15.29.43.29.84,0,.48-.09.8-.27.96-.18.15-.48.23-.88.23h-3.18Z"/>
    <path d="M76.2,125.82c-.39,0-.65-.08-.78-.25-.13-.16-.2-.45-.2-.85,0-.48.06-.8.19-.94.13-.14.39-.22.8-.22h3.18c.39,0,.68.08.87.23.19.15.29.43.29.84,0,.48-.09.8-.27.96-.18.15-.48.23-.88.23h-3.18Z"/>
    <path d="M88.21,125.82c-.62,0-1.16-.13-1.62-.38-.46-.25-.82-.63-1.07-1.13-.48,1-1.49,1.51-3.01,1.51h-3.13c-.39,0-.68-.07-.87-.2-.19-.13-.29-.4-.29-.81,0-.48.09-.81.27-.98.18-.17.48-.26.88-.26h2.69c.48,0,.83-.11,1.06-.33s.33-.62.33-1.2v-5.27c0-.19.1-.29.29-.29h1.85c.19,0,.29.1.29.29v4.83c0,.66.23,1.15.7,1.48s1.08.49,1.85.49h.72c.48,0,.83-.11,1.06-.33s.33-.62.33-1.2v-5.27c0-.19.1-.29.29-.29h1.85c.19,0,.29.1.29.29v4.95c0,.62.24,1.08.72,1.39.48.31,1.11.46,1.88.46h.67c.48,0,.83-.11,1.06-.33s.33-.62.33-1.2v-7.76c0-.19.1-.29.29-.29h1.85c.19,0,.29.1.29.29v7.32c0,.66.24,1.15.71,1.48s1.1.49,1.9.49h.32c.39,0,.68.08.87.25s.29.44.29.82c0,.5-.09.83-.27.97-.18.14-.48.22-.88.22h-.61c-.62,0-1.16-.13-1.62-.38-.46-.25-.82-.63-1.07-1.13-.48,1-1.49,1.51-3.01,1.51h-1.39c-.62,0-1.16-.13-1.62-.38-.46-.25-.82-.63-1.07-1.13-.48,1-1.49,1.51-3.01,1.51h-1.39Z"/>
    <path d="M103.03,125.82c-.39,0-.65-.08-.78-.25-.13-.16-.2-.45-.2-.85,0-.48.06-.8.19-.94.13-.14.39-.22.8-.22h3.18c.39,0,.68.08.87.23.19.15.29.43.29.84,0,.48-.09.8-.27.96-.18.15-.48.23-.88.23h-3.18Z"/>
    <path d="M106.24,125.82c-.39,0-.65-.08-.78-.25-.13-.16-.2-.45-.2-.85,0-.48.06-.8.19-.94.13-.14.39-.22.8-.22h3.18c.39,0,.68.08.87.23.19.15.29.43.29.84,0,.48-.09.8-.27.96-.18.15-.48.23-.88.23h-3.18Z"/>
    <path d="M109.46,125.82c-.39,0-.65-.08-.78-.25-.13-.16-.2-.45-.2-.85,0-.48.06-.8.19-.94.13-.14.39-.22.8-.22h3.18c.39,0,.68.08.87.23.19.15.29.43.29.84,0,.48-.09.8-.27.96-.18.15-.48.23-.88.23h-3.18Z"/>
    <path d="M112.67,125.82c-.39,0-.65-.08-.78-.25-.13-.16-.2-.45-.2-.85,0-.48.06-.8.19-.94.13-.14.39-.22.8-.22h3.18c.39,0,.68.08.87.23.19.15.29.43.29.84,0,.48-.09.8-.27.96-.18.15-.48.23-.88.23h-3.18Z"/>
    <path d="M124.6,126.02c-.91,0-1.71-.13-2.4-.39-.69-.26-1.28-.67-1.77-1.23-.4.62-.93,1.01-1.56,1.17-.64.16-1.23.25-1.77.25h-1.24c-.77,0-1.16-.39-1.16-1.16,0-.48.09-.79.27-.91.18-.13.48-.19.88-.19h1.45c.21,0,.42-.04.64-.13.21-.09.4-.23.58-.43s.31-.47.42-.81.16-.76.16-1.26c-.02-.19-.03-.38-.03-.56v-.59c0-2.22.49-3.83,1.48-4.82s2.33-1.49,4.05-1.49,3.07.5,4.05,1.49,1.48,2.6,1.48,4.82c0,1.1-.13,2.05-.39,2.84s-.63,1.44-1.1,1.94c-.47.5-1.05.87-1.74,1.11s-1.45.36-2.3.36ZM124.6,115.71c-1.08,0-1.87.36-2.36,1.07-.49.71-.74,1.71-.74,2.98,0,1.39.25,2.4.74,3.04.49.64,1.28.95,2.36.95s1.87-.32,2.36-.95c.49-.64.74-1.65.74-3.04,0-1.27-.25-2.27-.74-2.98-.49-.71-1.28-1.07-2.36-1.07Z"/>
    <path d="M132.01,131.58c-.19,0-.29-.1-.29-.29v-1.68c0-.19.1-.29.29-.29h.67c1.56,0,2.34-.82,2.34-2.46v-12.59c0-.19.1-.29.29-.29h1.85c.19,0,.29.1.29.29v12.53c0,1.56-.4,2.75-1.19,3.56s-1.95,1.22-3.47,1.22h-.78Z"/>
    <path d="M146.57,131.58c-.19,0-.29-.1-.29-.29v-1.68c0-.19.1-.29.29-.29h.67c1.56,0,2.34-.82,2.34-2.46v-12.59c0-.19.1-.29.29-.29h1.85c.19,0,.29.1.29.29v7.32c0,.66.24,1.15.71,1.48.47.33,1.1.49,1.9.49h.32c.39,0,.68.08.87.25.19.16.29.44.29.82,0,.5-.09.83-.28.97s-.48.22-.88.22h-.61c-1,0-1.78-.31-2.32-.93v1.91c0,1.56-.4,2.75-1.19,3.56s-1.95,1.22-3.47,1.22h-.78Z"/>
    <path d="M154.96,125.82c-.39,0-.65-.08-.78-.25-.13-.16-.2-.45-.2-.85,0-.48.06-.8.19-.94.13-.14.39-.22.8-.22h3.18c.39,0,.68.08.87.23.19.15.29.43.29.84,0,.48-.09.8-.27.96-.18.15-.48.23-.88.23h-3.18Z"/>
    <path d="M158.17,125.82c-.39,0-.65-.08-.78-.25-.13-.16-.2-.45-.2-.85,0-.48.06-.8.19-.94.13-.14.39-.22.8-.22h3.18c.39,0,.68.08.87.23.19.15.29.43.29.84,0,.48-.09.8-.27.96-.18.15-.48.23-.88.23h-3.18Z"/>
    <path d="M161.39,125.82c-.39,0-.65-.08-.78-.25-.13-.16-.2-.45-.2-.85,0-.48.06-.8.19-.94.13-.14.39-.22.8-.22h3.18c.39,0,.68.08.87.23.19.15.29.43.29.84,0,.48-.09.8-.27.96-.18.15-.48.23-.88.23h-3.18Z"/>
    <path d="M164.77,125.82c-.39,0-.68-.07-.87-.2-.19-.13-.29-.4-.29-.81,0-.48.09-.81.27-.98.18-.17.48-.26.88-.26h1.82c.48,0,.83-.11,1.06-.33s.33-.62.33-1.2v-7.76c0-.19.1-.29.29-.29h1.85c.19,0,.29.1.29.29v7.32c0,.66.24,1.15.71,1.48s1.1.49,1.9.49h.35c.39,0,.68.08.87.25s.29.44.29.82c0,.5-.09.83-.27.97-.18.14-.48.22-.88.22h-.64c-.62,0-1.16-.13-1.62-.38-.46-.25-.82-.63-1.07-1.13-.48,1-1.49,1.51-3.01,1.51h-2.26ZM168.28,131.11c-.19,0-.29-.1-.29-.29v-2.11c0-.19.1-.29.29-.29h1.97c.19,0,.29.1.29.29v2.11c0,.19-.1.29-.29.29h-1.97Z"/>
    <path d="M173.17,125.82c-.39,0-.65-.08-.78-.25-.13-.16-.2-.45-.2-.85,0-.48.06-.8.19-.94.13-.14.39-.22.8-.22h3.18c.39,0,.68.08.87.23.19.15.29.43.29.84,0,.48-.09.8-.27.96-.18.15-.48.23-.88.23h-3.18Z"/>
    <path d="M176.38,125.82c-.39,0-.65-.08-.78-.25-.13-.16-.2-.45-.2-.85,0-.48.06-.8.19-.94.13-.14.39-.22.8-.22h3.18c.39,0,.68.08.87.23.19.15.29.43.29.84,0,.48-.09.8-.27.96-.18.15-.48.23-.88.23h-3.18Z"/>
    <path d="M179.59,125.82c-.39,0-.65-.08-.78-.25-.13-.16-.2-.45-.2-.85,0-.48.06-.8.19-.94.13-.14.39-.22.8-.22h3.18c.39,0,.68.08.87.23.19.15.29.43.29.84,0,.48-.09.8-.27.96-.18.15-.48.23-.88.23h-3.18Z"/>
    <path d="M182.98,125.82c-.39,0-.68-.07-.87-.2-.19-.13-.29-.4-.29-.81,0-.48.09-.81.27-.98.18-.17.48-.26.88-.26h1.97c.48,0,.83-.11,1.06-.33s.33-.62.33-1.2v-7.76c0-.19.1-.29.29-.29h1.85c.19,0,.29.1.29.29v7.32c0,.66.24,1.15.71,1.48.47.33,1.1.49,1.9.49h.35c.39,0,.68.08.87.25.19.16.29.44.29.82,0,.5-.09.83-.27.97s-.48.22-.88.22h-.64c-.62,0-1.16-.13-1.62-.38-.46-.25-.82-.63-1.07-1.13-.48,1-1.49,1.51-3.01,1.51h-2.4ZM184.75,111.11c-.19,0-.29-.1-.29-.29v-2.11c0-.19.1-.29.29-.29h1.97c.19,0,.29.1.29.29v2.11c0,.19-.1.29-.29.29h-1.97ZM188.28,111.11c-.19,0-.29-.1-.29-.29v-2.11c0-.19.1-.29.29-.29h1.97c.19,0,.29.1.29.29v2.11c0,.19-.1.29-.29.29h-1.97Z"/>
    <path d="M191.75,125.82c-.39,0-.65-.08-.78-.25-.13-.16-.2-.45-.2-.85,0-.48.06-.8.19-.94.13-.14.39-.22.8-.22h3.18c.39,0,.68.08.87.23.19.15.29.43.29.84,0,.48-.09.8-.27.96-.18.15-.48.23-.88.23h-3.18Z"/>
    <path d="M194.96,125.82c-.39,0-.65-.08-.78-.25-.13-.16-.2-.45-.2-.85,0-.48.06-.8.19-.94.13-.14.39-.22.8-.22h3.18c.39,0,.68.08.87.23.19.15.29.43.29.84,0,.48-.09.8-.27.96-.18.15-.48.23-.88.23h-3.18Z"/>
    <path d="M204.92,115.71c-.66,0-1.26.13-1.81.4s-1.04.64-1.46,1.1c-.12.14-.25.14-.41.03l-1.27-1.04c-.17-.13-.2-.27-.09-.4.54-.68,1.21-1.23,2.01-1.68.8-.44,1.78-.67,2.94-.67,1.33,0,2.42.21,3.27.62.85.42,1.52.96,2.01,1.64.49.68.83,1.46,1.03,2.34.19.89.29,1.81.29,2.75,0,.17,0,.34-.01.49-.01.15-.01.31-.01.46.04.6.29,1.05.77,1.35s1.09.45,1.84.45h.32c.39,0,.68.08.87.25.19.16.29.44.29.82,0,.5-.09.83-.28.97s-.48.22-.88.22h-.61c-.66,0-1.24-.14-1.77-.42-.52-.28-.89-.7-1.1-1.26-.33.62-.79,1.05-1.37,1.3-.59.25-1.33.38-2.21.38h-9.12c-.77,0-1.16-.39-1.16-1.16,0-.48.09-.79.27-.91.18-.13.48-.19.88-.19h8.22c.54,0,.97-.04,1.3-.13.33-.09.58-.24.75-.45.17-.21.29-.5.35-.85.06-.36.09-.8.09-1.32,0-.75-.07-1.44-.2-2.07-.14-.63-.35-1.17-.65-1.62-.3-.45-.7-.8-1.2-1.04-.5-.24-1.13-.36-1.88-.36ZM204.23,111.14c-.19,0-.29-.1-.29-.29v-2.11c0-.19.1-.29.29-.29h1.97c.19,0,.29.1.29.29v2.11c0,.19-.1.29-.29.29h-1.97Z"/>
    <path d="M214.36,125.82c-.39,0-.65-.08-.78-.25-.13-.16-.2-.45-.2-.85,0-.48.06-.8.19-.94.13-.14.39-.22.8-.22h3.18c.39,0,.68.08.87.23.19.15.29.43.29.84,0,.48-.09.8-.27.96-.18.15-.48.23-.88.23h-3.18Z"/>
    <path d="M217.57,125.82c-.39,0-.65-.08-.78-.25-.13-.16-.2-.45-.2-.85,0-.48.06-.8.19-.94.13-.14.39-.22.8-.22h3.18c.39,0,.68.08.87.23.19.15.29.43.29.84,0,.48-.09.8-.27.96-.18.15-.48.23-.88.23h-3.18Z"/>
    <path d="M220.78,125.82c-.39,0-.65-.08-.78-.25-.13-.16-.2-.45-.2-.85,0-.48.06-.8.19-.94.13-.14.39-.22.8-.22h3.18c.39,0,.68.08.87.23.19.15.29.43.29.84,0,.48-.09.8-.27.96-.18.15-.48.23-.88.23h-3.18Z"/>
    <path d="M232.71,126.02c-.91,0-1.71-.13-2.4-.39-.69-.26-1.28-.67-1.77-1.23-.4.62-.93,1.01-1.56,1.17-.64.16-1.23.25-1.77.25h-1.24c-.77,0-1.16-.39-1.16-1.16,0-.48.09-.79.27-.91.18-.13.48-.19.88-.19h1.45c.21,0,.42-.04.64-.13.21-.09.4-.23.58-.43s.31-.47.42-.81.16-.76.16-1.26c-.02-.19-.03-.38-.03-.56v-.59c0-2.22.49-3.83,1.48-4.82s2.33-1.49,4.05-1.49,3.07.5,4.05,1.49,1.48,2.6,1.48,4.82c0,1.1-.13,2.05-.39,2.84s-.63,1.44-1.1,1.94c-.47.5-1.05.87-1.74,1.11s-1.45.36-2.3.36ZM232.71,115.71c-1.08,0-1.87.36-2.36,1.07-.49.71-.74,1.71-.74,2.98,0,1.39.25,2.4.74,3.04.49.64,1.28.95,2.36.95s1.87-.32,2.36-.95c.49-.64.74-1.65.74-3.04,0-1.27-.25-2.27-.74-2.98-.49-.71-1.28-1.07-2.36-1.07Z"/>
  </g>
  <g>
    <path d="M153.86,79.8c-.38,0-.72.14-.99.41l-3.81,3.82,9.02,9.47h14.65l-13.24-13.7h-5.64Z"/>
    <path d="M135.44,90.72c-1.79,1.79-4.16,2.77-6.68,2.77-5.2,0-9.43-4.23-9.43-9.43v-38.26h10.38v35.95l13.09-13.12.1-.1c2.22-2.15,5.13-3.35,8.24-3.35h5.21c.52.02,1.05.02,1.56,0h.24c.34,0,.68-.05,1-.13,1.84-.44,3.19-2.1,3.19-4.07v-22.98c0-2.31-1.88-4.19-4.19-4.19h-20.82v-10.38h20.82c6.54,0,12.09,4.33,13.93,10.27.43,1.36.66,2.8.66,4.31v22.98c0,.52-.02,1.03-.08,1.54-.78,7.32-6.99,13.04-14.51,13.04h-1.37l-6.47.11-14.88,15.05Z"/>
    <polygon points="129.57 33.8 135.27 33.8 135.27 23.42 119.34 23.42 119.34 43.61 129.57 43.61 129.57 33.8"/>
  </g>
</svg>