<svg xmlns="http://www.w3.org/2000/svg" xmlns:xlink="http://www.w3.org/1999/xlink" width="141" zoomAndPan="magnify" viewBox="0 0 105.75 24.749999" height="33" preserveAspectRatio="xMidYMid meet" version="1.0"><defs><clipPath id="0b0d2e8722"><path d="M 0.40625 0 L 104.355469 0 L 104.355469 24.503906 L 0.40625 24.503906 Z M 0.40625 0 " clip-rule="nonzero"/></clipPath></defs><g clip-path="url(#0b0d2e8722)"><path fill="#383c2a" d="M 12.492188 0.015625 C 5.886719 0.015625 0.507812 5.394531 0.503906 12 C 0.503906 14.113281 1.054688 16.175781 2.105469 17.992188 L 0.40625 24.207031 L 6.757812 22.539062 C 8.511719 23.492188 10.480469 23.996094 12.488281 23.996094 L 12.492188 23.996094 C 19.097656 23.996094 24.476562 18.621094 24.480469 12.007812 C 24.480469 8.808594 23.234375 5.792969 20.972656 3.53125 C 18.707031 1.265625 15.699219 0.015625 12.492188 0.015625 Z M 12.492188 21.972656 L 12.488281 21.972656 C 10.699219 21.972656 8.945312 21.492188 7.417969 20.585938 L 7.054688 20.367188 L 3.28125 21.359375 L 4.289062 17.683594 L 4.050781 17.304688 C 3.054688 15.71875 2.527344 13.886719 2.53125 12.003906 C 2.53125 6.507812 7 2.039062 12.496094 2.039062 C 15.15625 2.039062 17.660156 3.078125 19.539062 4.960938 C 21.421875 6.84375 22.457031 9.347656 22.457031 12.007812 C 22.453125 17.503906 17.984375 21.972656 12.492188 21.972656 Z M 17.957031 14.511719 C 17.65625 14.359375 16.183594 13.636719 15.910156 13.539062 C 15.636719 13.4375 15.4375 13.386719 15.234375 13.6875 C 15.035156 13.988281 14.460938 14.664062 14.289062 14.863281 C 14.113281 15.0625 13.9375 15.085938 13.640625 14.9375 C 13.339844 14.785156 12.375 14.472656 11.230469 13.449219 C 10.339844 12.65625 9.738281 11.675781 9.566406 11.375 C 9.390625 11.074219 9.546875 10.914062 9.695312 10.765625 C 9.832031 10.628906 9.996094 10.414062 10.144531 10.238281 C 10.292969 10.0625 10.34375 9.9375 10.445312 9.738281 C 10.546875 9.539062 10.496094 9.363281 10.421875 9.214844 C 10.347656 9.0625 9.746094 7.589844 9.496094 6.988281 C 9.253906 6.40625 9.007812 6.484375 8.824219 6.472656 C 8.648438 6.464844 8.449219 6.464844 8.25 6.464844 C 8.050781 6.464844 7.726562 6.539062 7.449219 6.839844 C 7.175781 7.136719 6.402344 7.863281 6.402344 9.335938 C 6.402344 10.808594 7.476562 12.234375 7.625 12.433594 C 7.777344 12.636719 9.738281 15.660156 12.742188 16.957031 C 13.457031 17.265625 14.015625 17.449219 14.449219 17.585938 C 15.167969 17.816406 15.820312 17.78125 16.335938 17.707031 C 16.910156 17.621094 18.109375 16.980469 18.355469 16.28125 C 18.605469 15.582031 18.605469 14.984375 18.53125 14.855469 C 18.457031 14.734375 18.253906 14.65625 17.957031 14.507812 Z M 39.164062 14.328125 L 39.132812 14.328125 L 37.144531 6.3125 L 34.75 6.3125 L 32.730469 14.230469 L 32.699219 14.230469 L 30.855469 6.3125 L 28.300781 6.3125 L 31.378906 17.945312 L 33.96875 17.945312 L 35.90625 10.027344 L 35.941406 10.027344 L 37.910156 17.945312 L 40.453125 17.945312 L 43.582031 6.3125 L 41.074219 6.3125 L 39.167969 14.328125 Z M 51.382812 10.246094 C 51.152344 9.949219 50.839844 9.714844 50.445312 9.546875 C 50.046875 9.378906 49.539062 9.292969 48.921875 9.292969 C 48.488281 9.292969 48.042969 9.40625 47.585938 9.628906 C 47.128906 9.851562 46.757812 10.207031 46.460938 10.695312 L 46.414062 10.695312 L 46.414062 6.3125 L 44.101562 6.3125 L 44.101562 17.945312 L 46.414062 17.945312 L 46.414062 13.53125 C 46.414062 12.671875 46.554688 12.054688 46.835938 11.679688 C 47.121094 11.308594 47.574219 11.117188 48.207031 11.117188 C 48.757812 11.117188 49.144531 11.289062 49.363281 11.632812 C 49.578125 11.972656 49.6875 12.492188 49.6875 13.1875 L 49.6875 17.945312 L 52 17.945312 L 52 12.765625 C 52 12.242188 51.953125 11.769531 51.863281 11.339844 C 51.769531 10.910156 51.609375 10.546875 51.382812 10.246094 Z M 60.910156 16.070312 L 60.910156 11.6875 C 60.910156 11.175781 60.796875 10.769531 60.566406 10.457031 C 60.339844 10.148438 60.046875 9.90625 59.6875 9.734375 C 59.332031 9.558594 58.933594 9.441406 58.5 9.382812 C 58.066406 9.324219 57.636719 9.292969 57.210938 9.292969 C 56.746094 9.292969 56.28125 9.339844 55.820312 9.433594 C 55.359375 9.523438 54.945312 9.679688 54.574219 9.898438 C 54.207031 10.113281 53.898438 10.402344 53.664062 10.761719 C 53.421875 11.121094 53.285156 11.570312 53.253906 12.113281 L 55.566406 12.113281 C 55.609375 11.65625 55.765625 11.332031 56.023438 11.136719 C 56.285156 10.9375 56.644531 10.84375 57.097656 10.84375 C 57.304688 10.84375 57.496094 10.855469 57.675781 10.882812 C 57.855469 10.910156 58.015625 10.960938 58.148438 11.046875 C 58.285156 11.125 58.394531 11.242188 58.476562 11.386719 C 58.558594 11.535156 58.597656 11.734375 58.597656 11.984375 C 58.609375 12.222656 58.539062 12.402344 58.386719 12.527344 C 58.234375 12.65625 58.027344 12.75 57.765625 12.8125 C 57.507812 12.878906 57.207031 12.929688 56.871094 12.960938 C 56.535156 12.992188 56.191406 13.039062 55.84375 13.089844 C 55.496094 13.144531 55.152344 13.21875 54.808594 13.3125 C 54.46875 13.402344 54.160156 13.542969 53.898438 13.726562 C 53.628906 13.910156 53.414062 14.15625 53.246094 14.46875 C 53.078125 14.777344 52.992188 15.171875 52.992188 15.648438 C 52.992188 16.082031 53.066406 16.457031 53.210938 16.773438 C 53.359375 17.085938 53.5625 17.347656 53.820312 17.554688 C 54.082031 17.761719 54.386719 17.914062 54.734375 18.011719 C 55.082031 18.109375 55.457031 18.15625 55.859375 18.15625 C 56.378906 18.15625 56.890625 18.082031 57.390625 17.929688 C 57.886719 17.777344 58.324219 17.511719 58.691406 17.132812 C 58.703125 17.273438 58.722656 17.410156 58.75 17.546875 C 58.777344 17.683594 58.8125 17.816406 58.855469 17.945312 L 61.199219 17.945312 C 61.09375 17.773438 61.015625 17.511719 60.972656 17.164062 C 60.929688 16.816406 60.90625 16.453125 60.90625 16.070312 Z M 58.597656 14.6875 C 58.597656 14.820312 58.585938 14.992188 58.558594 15.207031 C 58.53125 15.425781 58.457031 15.640625 58.335938 15.851562 C 58.21875 16.0625 58.03125 16.246094 57.785156 16.398438 C 57.535156 16.550781 57.179688 16.625 56.722656 16.625 C 56.539062 16.625 56.359375 16.609375 56.1875 16.578125 C 56.011719 16.546875 55.859375 16.488281 55.730469 16.40625 C 55.601562 16.324219 55.496094 16.214844 55.421875 16.070312 C 55.347656 15.929688 55.304688 15.757812 55.304688 15.550781 C 55.304688 15.335938 55.34375 15.152344 55.421875 15.011719 C 55.496094 14.871094 55.597656 14.757812 55.722656 14.664062 C 55.847656 14.570312 55.996094 14.5 56.164062 14.445312 C 56.328125 14.390625 56.5 14.347656 56.675781 14.3125 C 56.859375 14.28125 57.046875 14.253906 57.230469 14.230469 C 57.417969 14.210938 57.589844 14.183594 57.761719 14.152344 C 57.929688 14.117188 58.085938 14.078125 58.234375 14.027344 C 58.378906 13.980469 58.503906 13.914062 58.601562 13.824219 L 58.601562 14.6875 Z M 65.226562 6.996094 L 62.914062 6.996094 L 62.914062 9.519531 L 61.515625 9.519531 L 61.515625 11.070312 L 62.914062 11.070312 L 62.914062 16.039062 C 62.914062 16.464844 62.988281 16.804688 63.125 17.066406 C 63.269531 17.324219 63.460938 17.527344 63.707031 17.667969 C 63.949219 17.808594 64.230469 17.902344 64.554688 17.953125 C 64.871094 18 65.214844 18.027344 65.570312 18.027344 C 65.800781 18.027344 66.035156 18.019531 66.273438 18.011719 C 66.511719 18 66.730469 17.980469 66.925781 17.945312 L 66.925781 16.152344 C 66.816406 16.175781 66.703125 16.191406 66.582031 16.203125 C 66.460938 16.214844 66.339844 16.21875 66.207031 16.21875 C 65.820312 16.21875 65.558594 16.152344 65.425781 16.023438 C 65.296875 15.894531 65.230469 15.632812 65.230469 15.242188 L 65.230469 11.070312 L 66.925781 11.070312 L 66.925781 9.519531 L 65.230469 9.519531 L 65.230469 6.996094 Z M 74.789062 14.257812 C 74.636719 13.988281 74.4375 13.765625 74.1875 13.589844 C 73.9375 13.410156 73.652344 13.265625 73.332031 13.15625 C 73.011719 13.046875 72.683594 12.957031 72.347656 12.878906 C 72.019531 12.800781 71.703125 12.730469 71.386719 12.667969 C 71.070312 12.601562 70.792969 12.527344 70.546875 12.449219 C 70.300781 12.367188 70.105469 12.261719 69.953125 12.128906 C 69.800781 12 69.726562 11.832031 69.726562 11.625 C 69.726562 11.449219 69.765625 11.3125 69.855469 11.207031 C 69.941406 11.105469 70.046875 11.027344 70.171875 10.972656 C 70.296875 10.917969 70.4375 10.882812 70.585938 10.867188 C 70.738281 10.847656 70.878906 10.84375 71.011719 10.84375 C 71.421875 10.84375 71.78125 10.921875 72.085938 11.078125 C 72.390625 11.234375 72.558594 11.535156 72.589844 11.980469 L 74.792969 11.980469 C 74.746094 11.460938 74.613281 11.027344 74.394531 10.683594 C 74.171875 10.34375 73.890625 10.070312 73.554688 9.863281 C 73.21875 9.65625 72.835938 9.511719 72.40625 9.421875 C 71.976562 9.335938 71.535156 9.292969 71.078125 9.292969 C 70.621094 9.292969 70.175781 9.332031 69.742188 9.414062 C 69.308594 9.492188 68.917969 9.636719 68.570312 9.835938 C 68.222656 10.039062 67.941406 10.3125 67.730469 10.660156 C 67.519531 11.007812 67.410156 11.453125 67.410156 11.996094 C 67.410156 12.363281 67.488281 12.679688 67.640625 12.933594 C 67.792969 13.1875 67.992188 13.398438 68.242188 13.566406 C 68.492188 13.734375 68.78125 13.871094 69.097656 13.976562 C 69.417969 14.082031 69.746094 14.167969 70.085938 14.246094 C 70.910156 14.417969 71.554688 14.59375 72.015625 14.765625 C 72.476562 14.941406 72.707031 15.199219 72.707031 15.546875 C 72.707031 15.757812 72.660156 15.925781 72.558594 16.058594 C 72.460938 16.199219 72.339844 16.304688 72.195312 16.386719 C 72.046875 16.46875 71.882812 16.527344 71.703125 16.566406 C 71.527344 16.601562 71.351562 16.621094 71.191406 16.621094 C 70.960938 16.621094 70.742188 16.59375 70.53125 16.542969 C 70.320312 16.488281 70.132812 16.402344 69.96875 16.289062 C 69.804688 16.175781 69.671875 16.027344 69.570312 15.847656 C 69.464844 15.667969 69.414062 15.453125 69.414062 15.203125 L 67.214844 15.203125 C 67.238281 15.769531 67.363281 16.238281 67.597656 16.613281 C 67.832031 16.988281 68.128906 17.289062 68.492188 17.519531 C 68.855469 17.746094 69.273438 17.910156 69.738281 18.007812 C 70.207031 18.105469 70.683594 18.15625 71.171875 18.15625 C 71.660156 18.15625 72.121094 18.109375 72.582031 18.015625 C 73.042969 17.925781 73.453125 17.765625 73.8125 17.535156 C 74.167969 17.308594 74.460938 17.007812 74.683594 16.632812 C 74.90625 16.257812 75.015625 15.792969 75.015625 15.238281 C 75.015625 14.847656 74.941406 14.519531 74.789062 14.253906 L 74.785156 14.253906 Z M 79.382812 6.3125 L 74.984375 17.945312 L 77.558594 17.945312 L 78.472656 15.355469 L 82.820312 15.355469 L 83.699219 17.945312 L 86.355469 17.945312 L 82.007812 6.3125 Z M 79.140625 13.449219 L 80.65625 9.179688 L 80.6875 9.179688 L 82.152344 13.449219 Z M 94.355469 10.664062 C 94.039062 10.25 93.644531 9.917969 93.164062 9.667969 C 92.6875 9.417969 92.117188 9.292969 91.457031 9.292969 C 90.933594 9.292969 90.457031 9.398438 90.023438 9.605469 C 89.585938 9.8125 89.230469 10.140625 88.949219 10.597656 L 88.914062 10.597656 L 88.914062 9.519531 L 86.714844 9.519531 L 86.714844 20.894531 L 89.027344 20.894531 L 89.027344 16.902344 L 89.0625 16.902344 C 89.34375 17.316406 89.703125 17.628906 90.144531 17.839844 C 90.585938 18.050781 91.066406 18.15625 91.585938 18.15625 C 92.207031 18.15625 92.746094 18.035156 93.207031 17.796875 C 93.667969 17.558594 94.054688 17.238281 94.363281 16.835938 C 94.675781 16.433594 94.90625 15.972656 95.058594 15.453125 C 95.207031 14.929688 95.285156 14.386719 95.285156 13.820312 C 95.285156 13.222656 95.207031 12.652344 95.058594 12.101562 C 94.90625 11.554688 94.671875 11.074219 94.355469 10.660156 Z M 92.871094 14.753906 C 92.808594 15.078125 92.695312 15.363281 92.539062 15.609375 C 92.378906 15.851562 92.175781 16.050781 91.917969 16.203125 C 91.664062 16.355469 91.347656 16.433594 90.964844 16.433594 C 90.585938 16.433594 90.28125 16.355469 90.023438 16.203125 C 89.761719 16.050781 89.554688 15.851562 89.394531 15.609375 C 89.238281 15.363281 89.125 15.078125 89.054688 14.753906 C 88.984375 14.425781 88.949219 14.09375 88.949219 13.757812 C 88.949219 13.425781 88.980469 13.074219 89.042969 12.75 C 89.109375 12.425781 89.222656 12.136719 89.378906 11.886719 C 89.535156 11.636719 89.742188 11.433594 90 11.273438 C 90.253906 11.117188 90.570312 11.035156 90.953125 11.035156 C 91.332031 11.035156 91.632812 11.117188 91.886719 11.273438 C 92.144531 11.429688 92.351562 11.636719 92.515625 11.894531 C 92.679688 12.148438 92.792969 12.441406 92.867188 12.765625 C 92.9375 13.089844 92.972656 13.425781 92.972656 13.761719 C 92.972656 14.097656 92.9375 14.429688 92.875 14.753906 Z M 104.273438 12.105469 C 104.125 11.558594 103.890625 11.074219 103.574219 10.664062 C 103.261719 10.25 102.863281 9.917969 102.386719 9.667969 C 101.90625 9.417969 101.335938 9.292969 100.675781 9.292969 C 100.152344 9.292969 99.675781 9.398438 99.242188 9.605469 C 98.808594 9.8125 98.449219 10.140625 98.167969 10.597656 L 98.132812 10.597656 L 98.132812 9.519531 L 95.933594 9.519531 L 95.933594 20.894531 L 98.246094 20.894531 L 98.246094 16.902344 L 98.28125 16.902344 C 98.5625 17.316406 98.925781 17.628906 99.363281 17.839844 C 99.800781 18.050781 100.285156 18.15625 100.804688 18.15625 C 101.425781 18.15625 101.964844 18.035156 102.425781 17.796875 C 102.886719 17.558594 103.273438 17.238281 103.582031 16.835938 C 103.894531 16.433594 104.121094 15.972656 104.273438 15.453125 C 104.425781 14.929688 104.503906 14.386719 104.503906 13.820312 C 104.503906 13.222656 104.425781 12.652344 104.273438 12.101562 Z M 102.089844 14.753906 C 102.027344 15.078125 101.914062 15.363281 101.757812 15.609375 C 101.601562 15.851562 101.394531 16.050781 101.140625 16.203125 C 100.882812 16.355469 100.566406 16.433594 100.1875 16.433594 C 99.804688 16.433594 99.5 16.355469 99.242188 16.203125 C 98.980469 16.050781 98.769531 15.851562 98.613281 15.609375 C 98.457031 15.363281 98.339844 15.078125 98.269531 14.753906 C 98.199219 14.425781 98.164062 14.09375 98.164062 13.757812 C 98.164062 13.425781 98.199219 13.074219 98.265625 12.75 C 98.328125 12.425781 98.441406 12.136719 98.597656 11.886719 C 98.753906 11.636719 98.960938 11.433594 99.21875 11.273438 C 99.472656 11.117188 99.789062 11.035156 100.171875 11.035156 C 100.550781 11.035156 100.851562 11.117188 101.105469 11.273438 C 101.363281 11.429688 101.570312 11.636719 101.734375 11.894531 C 101.898438 12.148438 102.011719 12.441406 102.082031 12.765625 C 102.15625 13.089844 102.191406 13.425781 102.191406 13.761719 C 102.191406 14.097656 102.15625 14.429688 102.089844 14.753906 Z M 102.089844 14.753906 " fill-opacity="1" fill-rule="nonzero"/></g></svg>